HIERARCHY
ROOT Hips
{
	OFFSET 0.000000 0.000000 0.000000
	CHANNELS 6 Xposition Yposition Zposition Zrotation Yrotation Xrotation 
	JOINT LHipJoint
	{
		OFFSET 0.000000 0.000000 0.000000
		CHANNELS 3 Zrotation Yrotation Xrotation
		JOINT LeftUpLeg
		{
			OFFSET 1.363060 -1.794630 0.839290
			CHANNELS 3 Zrotation Yrotation Xrotation
			JOINT LeftLeg
			{
				OFFSET 2.448110 -6.726130 0.000000
				CHANNELS 3 Zrotation Yrotation Xrotation
				JOINT LeftFoot
				{
					OFFSET 2.562200 -7.039590 0.000000
					CHANNELS 3 Zrotation Yrotation Xrotation
					JOINT LeftToeBase
					{
						OFFSET 0.157640 -0.433110 2.322550
						CHANNELS 3 Zrotation Yrotation Xrotation
						End Site
						{
							OFFSET 0.000000 0.000000 0.000000
						}
					}
				}
			}
		}
	}
	JOINT RHipJoint
	{
		OFFSET 0.000000 0.000000 0.000000
		CHANNELS 3 Zrotation Yrotation Xrotation
		JOINT RightUpLeg
		{
			OFFSET -1.305520 -1.794630 0.839290
			CHANNELS 3 Zrotation Yrotation Xrotation
			JOINT RightLeg
			{
				OFFSET -2.542530 -6.985550 0.000000
				CHANNELS 3 Zrotation Yrotation Xrotation
				JOINT RightFoot
				{
					OFFSET -2.568260 -7.056230 0.000000
					CHANNELS 3 Zrotation Yrotation Xrotation
					JOINT RightToeBase
					{
						OFFSET -0.164730 -0.452590 2.363150
						CHANNELS 3 Zrotation Yrotation Xrotation
						End Site
						{
							OFFSET 0.000000 0.000000 0.000000
						}
					}
				}
			}
		}
	}
	JOINT LowerBack
	{
		OFFSET 0.000000 0.000000 0.000000
		CHANNELS 3 Zrotation Yrotation Xrotation
		JOINT Spine
		{
			OFFSET 0.028270 2.035590 -0.193380
			CHANNELS 3 Zrotation Yrotation Xrotation
			JOINT Spine1
			{
				OFFSET 0.056720 2.048850 -0.042750
				CHANNELS 3 Zrotation Yrotation Xrotation
				JOINT Neck
				{
					OFFSET 0.000000 0.000000 0.000000
					CHANNELS 3 Zrotation Yrotation Xrotation
					JOINT Neck1
					{
						OFFSET -0.054170 1.746240 0.172020
						CHANNELS 3 Zrotation Yrotation Xrotation
						JOINT Head
						{
							OFFSET 0.104070 1.761360 -0.123970
							CHANNELS 3 Zrotation Yrotation Xrotation
							End Site
							{
								OFFSET 0.000000 0.000000 0.000000
							}
						}
					}
				}
				JOINT LeftShoulder
				{
					OFFSET 0.000000 0.000000 0.000000
					CHANNELS 3 Zrotation Yrotation Xrotation
					JOINT LeftArm
					{
						OFFSET 3.362410 1.200890 -0.311210
						CHANNELS 3 Zrotation Yrotation Xrotation
						JOINT LeftForeArm
						{
							OFFSET 4.983000 -0.000000 -0.000000
							CHANNELS 3 Zrotation Yrotation Xrotation
							JOINT LeftHand
							{
								OFFSET 3.483560 -0.000000 -0.000000
								CHANNELS 3 Zrotation Yrotation Xrotation
								JOINT LeftFingerBase
								{
									OFFSET 0.000000 0.000000 0.000000
									CHANNELS 3 Zrotation Yrotation Xrotation
									JOINT LeftHandIndex1
									{
										OFFSET 0.715260 -0.000000 -0.000000
										CHANNELS 3 Zrotation Yrotation Xrotation
										End Site
										{
											OFFSET 0.000000 0.000000 0.000000
										}
									}
								}
								JOINT LThumb
								{
									OFFSET 0.000000 0.000000 0.000000
									CHANNELS 3 Zrotation Yrotation Xrotation
									End Site
									{
										OFFSET 0.000000 0.000000 0.000000
									}
								}
							}
						}
					}
				}
				JOINT RightShoulder
				{
					OFFSET 0.000000 0.000000 0.000000
					CHANNELS 3 Zrotation Yrotation Xrotation
					JOINT RightArm
					{
						OFFSET -3.136600 1.374050 -0.404650
						CHANNELS 3 Zrotation Yrotation Xrotation
						JOINT RightForeArm
						{
							OFFSET -5.241900 -0.000000 -0.000000
							CHANNELS 3 Zrotation Yrotation Xrotation
							JOINT RightHand
							{
								OFFSET -3.444170 -0.000000 -0.000000
								CHANNELS 3 Zrotation Yrotation Xrotation
								JOINT RightFingerBase
								{
									OFFSET 0.000000 0.000000 0.000000
									CHANNELS 3 Zrotation Yrotation Xrotation
									JOINT RightHandIndex1
									{
										OFFSET -0.622530 -0.000000 -0.000000
										CHANNELS 3 Zrotation Yrotation Xrotation
										End Site
										{
											OFFSET 0.000000 0.000000 0.000000
										}
									}
								}
								JOINT RThumb
								{
									OFFSET 0.000000 0.000000 0.000000
									CHANNELS 3 Zrotation Yrotation Xrotation
									End Site
									{
										OFFSET 0.000000 0.000000 0.000000
									}
								}
							}
						}
					}
				}
			}
		}
	}
}
MOTION
Frames: 6
Frame Time: 0.008333
2.884745 17.331220 0.508078 -176.505218 -49.867072 -171.725950 -12.457885 3.964005 -0.568473 -5.561606 32.658007 -13.061809 -2.544142 -0.558608 3.706076 2.847167 20.869717 -0.842603 2.608500 0.000000 -44.324300 8.508981 -1.883464 7.738732 -0.807405 15.393448 -19.070604 3.152110 1.213435 1.994517 1.701223 9.081656 9.721068 1.846400 0.000000 -72.413600 2.163735 -6.321949 -10.495177 1.468133 -6.651248 -4.429333 -0.876637 -6.836471 1.365920 14.371823 -18.418647 -9.709251 1.001952 0.122123 -0.462351 0.000000 0.000000 0.000000 22.403657 1.345043 4.417650 4.103890 -27.685473 -42.940025 -0.422373 -5.892938 -0.045664 6.941739 -5.482081 -0.382887 -0.265606 0.589603 -0.000000 0.000000 0.000000 0.000000 0.000000 0.000000 0.000000 2.789461 -17.509531 -2.672786 23.756107 26.843413 -6.217001 -178.518881 59.712653 179.885702 -11.887950 4.116537 -0.501913 0.191785 -0.619864 0.000000 0.000000 0.000000 0.000000 0.000000 0.000000 0.000000 
2.877172 17.327359 0.497015 -176.681160 -49.051559 -171.518844 -12.473970 3.942751 -0.739323 -5.701119 33.371457 -13.076679 -2.595667 -0.555671 3.843314 2.851527 21.012142 -0.823228 2.625100 0.000000 -44.444100 8.439822 -1.938159 8.020916 -1.211062 16.560118 -19.438007 3.090980 1.163569 2.220278 1.653571 8.700986 9.603089 1.733500 0.000000 -72.065800 2.378134 -6.042190 -10.612478 1.477889 -6.402505 -4.447892 -0.905504 -6.594487 1.503972 14.089325 -18.729201 -9.830939 0.980040 0.123505 -0.492631 0.000000 0.000000 0.000000 22.264774 1.848124 4.239879 2.023200 -25.412271 -37.059523 -0.276999 -14.164962 -0.049629 6.271196 -3.992900 -0.260962 -0.227035 0.603439 -0.000000 0.000000 0.000000 0.000000 0.000000 0.000000 0.000000 2.505735 -17.466286 -2.498842 23.031971 25.133567 -6.819363 -178.604791 58.975273 179.887144 -11.835189 4.109778 -0.499362 0.202913 -0.619812 0.000000 0.000000 0.000000 0.000000 0.000000 0.000000 0.000000 
2.872763 17.323057 0.487082 -176.813846 -48.256876 -171.399944 -12.484135 3.905535 -0.937985 -5.762686 34.111628 -13.023113 -2.641246 -0.551172 4.016036 2.855365 21.160727 -0.816541 2.636400 0.000000 -44.548100 8.374221 -1.992552 8.281521 -1.580697 17.709858 -19.783912 3.025985 1.097979 2.529477 1.605068 8.368018 9.462211 1.635500 -0.000000 -71.740100 2.558869 -5.712123 -10.665118 1.448236 -6.103344 -4.490479 -1.039245 -6.295968 1.489054 13.894956 -18.950296 -9.792547 0.913320 0.117364 -0.475172 0.000000 0.000000 0.000000 21.956662 1.624745 4.004242 0.459622 -22.171929 -33.515239 -0.097719 -22.754968 -0.051989 5.792181 -3.270926 -0.203436 -0.186901 0.629342 -0.000000 0.000000 0.000000 0.000000 0.000000 0.000000 0.000000 2.387483 -17.294322 -2.249551 22.312705 23.070454 -7.397657 -178.741982 58.193658 179.888447 -11.857659 4.163702 -0.506678 0.220340 -0.620269 0.000000 0.000000 0.000000 0.000000 0.000000 0.000000 0.000000 
2.870815 17.318351 0.479439 -176.894906 -47.541350 -171.368904 -12.487403 3.853390 -1.155450 -5.739790 34.825921 -12.899563 -2.678124 -0.544782 4.208091 2.858045 21.299298 -0.828286 2.638600 0.000001 -44.634700 8.318514 -2.037906 8.494717 -1.885997 18.756907 -20.085761 2.961664 1.020696 2.913047 1.559140 8.104158 9.300758 1.557801 0.000000 -71.461200 2.695659 -5.364935 -10.632301 1.397194 -5.783120 -4.525810 -1.211497 -5.974353 1.421839 13.807092 -19.164380 -9.696920 0.824742 0.107873 -0.440501 0.000000 0.000000 0.000000 21.500037 1.366293 3.705967 -0.594851 -19.217302 -32.035231 0.074338 -30.622694 -0.052744 5.451222 -3.372944 -0.196866 -0.149388 0.660374 -0.000000 0.000000 0.000000 0.000000 0.000000 0.000000 0.000000 2.451500 -17.108591 -1.987592 21.580598 20.873381 -7.986295 -178.895639 57.454426 179.889612 -11.947891 4.285124 -0.524183 0.240233 -0.620497 0.000000 0.000000 0.000000 0.000000 0.000000 0.000000 0.000000 
2.869959 17.312895 0.474423 -176.936623 -46.946124 -171.407865 -12.489797 3.793320 -1.372385 -5.643963 35.472461 -12.721085 -2.706135 -0.537301 4.406346 2.858370 21.408660 -0.868962 2.625500 -0.000000 -44.704700 8.271963 -2.071617 8.649626 -2.110250 19.632482 -20.336296 2.902835 0.937855 3.366475 1.519711 7.925733 9.110545 1.503000 0.000000 -71.247800 2.815346 -5.029394 -10.525478 1.343331 -5.470055 -4.541583 -1.380872 -5.659347 1.363049 13.777912 -19.431995 -9.594588 0.735788 0.098035 -0.404324 0.000000 0.000000 0.000000 20.971652 1.364925 3.350400 -1.478334 -16.895799 -31.793393 0.225619 -37.656782 -0.054515 5.334049 -3.881029 -0.217175 -0.118650 0.688127 -0.000000 0.000000 0.000000 0.000000 0.000000 0.000000 0.000000 2.609630 -17.013364 -1.754902 20.922257 18.767553 -8.544264 -179.041872 56.834414 179.890723 -12.078613 4.457923 -0.549292 0.259384 -0.620190 0.000000 0.000000 0.000000 0.000000 0.000000 0.000000 0.000000 
2.869100 17.306634 0.471793 -176.958183 -46.500248 -171.492459 -12.496383 3.733029 -1.568533 -5.497783 36.010983 -12.506415 -2.725156 -0.529958 4.595263 2.856371 21.480628 -0.941384 2.595400 0.000000 -44.757500 8.233507 -2.093397 8.744040 -2.250325 20.292138 -20.536444 2.851988 0.854959 3.881811 1.489053 7.834746 8.886492 1.469300 0.000000 -71.107900 2.939743 -4.728372 -10.367825 1.297297 -5.188133 -4.537988 -1.532728 -5.375186 1.333645 13.758293 -19.774005 -9.499582 0.655693 0.089040 -0.371259 0.000000 0.000000 0.000000 20.434345 1.643191 2.948412 -2.464640 -15.075931 -32.215312 0.346345 -44.093700 -0.058613 5.467795 -4.427094 -0.249145 -0.095556 0.708729 -0.000000 0.000000 0.000000 0.000000 0.000000 0.000000 0.000000 2.784386 -17.057827 -1.569695 20.411048 16.902251 -9.028045 -179.171312 56.376430 179.891907 -12.218506 4.652738 -0.577414 0.275950 -0.619072 0.000000 0.000000 0.000000 0.000000 0.000000 0.000000 0.000000 
